<svg xmlns="http://www.w3.org/2000/svg" viewBox="0 0 137.3 28.9" enable-background="new 0 0 137.3 28.9"><path fill="#005392" d="M122.7 23.7c0 .2.1.3.3.3h14c.2 0 .3-.1.3-.3v-3c0-.2-.1-.3-.3-.3h-9.4c-.1 0-.2-.1-.2-.2v-3.9c0-.1.1-.2.2-.2h7.8c.2 0 .3-.1.3-.3v-3c0-.2-.1-.3-.3-.3h-7.8c-.1 0-.2-.1-.2-.2v-3.6c0-.1.1-.2.2-.2h9.4c.2 0 .3-.1.3-.3v-3c0-.2-.1-.3-.3-.3h-14c-.2 0-.3.1-.3.3v18.5zm-12.1-10.4h-3.8c-.1 0-.2-.1-.2-.2v-4.4c0-.1.1-.2.2-.2h3.8c1.8 0 2.9.9 2.9 2.3.1 1.5-1.1 2.5-2.9 2.5m7.9 10.7c.2 0 .3-.2.2-.3l-4.3-7.5c2.4-.9 3.9-2.8 3.9-5.3 0-3.5-2.9-5.9-7.4-5.9h-8.7c-.2 0-.3.1-.3.3v18.4c0 .2.1.3.3.3h4.1c.2 0 .3-.1.3-.3v-6.8c0-.1.1-.2.2-.2h2.9l3.8 6.9c.1.2.2.3.5.3h4.5zm-26.4 0c.2 0 .3-.1.3-.3v-14.9c0-.1.1-.2.2-.2h5.5c.2 0 .3-.1.3-.3v-3c0-.2-.1-.3-.3-.3h-16.1c-.2 0-.3.1-.3.3v3.1c0 .2.1.3.3.3h5.5c.1 0 .2.1.2.2v14.9c0 .2.1.3.3.3h4.1zm-20.9.3c5.6 0 8.6-2.5 8.6-6 0-3.4-2.4-5.2-6.9-5.7l-1.2-.1c-2.5-.3-3.4-1-3.4-2.1 0-1.2 1-2.1 2.9-2.1 1.8 0 3.4.5 5.1 1.5.2.1.3.1.4-.1l2-2.5c.2-.2.1-.3-.1-.4-1.8-1.2-4.5-2-7.4-2-4.7 0-7.7 2.3-7.7 5.8 0 3.3 2.5 5.2 6.9 5.7l1.2.1c2.6.3 3.4 1 3.4 2.1 0 1.3-1.3 2.3-3.6 2.3s-4.3-.9-5.7-2c-.2-.1-.4-.1-.5 0l-2.4 2.4c-.2.2-.1.4 0 .5 1.7 1.4 5 2.6 8.4 2.6m-28.6-.6c0 .2.1.3.3.3h3.6c.2 0 .3-.1.3-.3v-11.9h.2l7.7 11.9c.1.2.3.3.5.3h3.8c.2 0 .3-.1.3-.3v-18.4c0-.2-.1-.3-.3-.3h-3.6c-.2 0-.3.1-.3.3v11.9h-.1l-7.7-11.9c-.2-.2-.4-.3-.6-.3h-3.8c-.2 0-.3.1-.3.3v18.4zm-19 0c0 .2.1.3.3.3h14c.2 0 .3-.1.3-.3v-3c0-.2-.1-.3-.3-.3h-9.4c-.1 0-.2-.1-.2-.2v-3.9c0-.1.1-.2.2-.2h7.8c.2 0 .3-.1.3-.3v-3c0-.2-.1-.3-.3-.3h-7.8c-.1 0-.2-.1-.2-.2v-3.6c0-.1.1-.2.2-.2h9.4c.2 0 .3-.1.3-.3v-3c0-.2-.1-.3-.3-.3h-13.9c-.2 0-.3.1-.3.3v18.5zm-15.7.3c-.2 0-.3-.1-.4-.3l-7.5-19.8c0-.2 0-.4.2-.7l3.2-3.1c.2-.2.5-.1.6.1.1.2 6.2 17.5 6.2 17.5h.1l4.6-12.4c0-.2.2-.3.4-.3h4.4c.2 0 .4.1.3.3l-7.2 18.4c-.1.2-.2.3-.4.3h-4.5z"/></svg>